<svg xmlns="http://www.w3.org/2000/svg" xmlns:xlink="http://www.w3.org/1999/xlink" width="24" height="24" viewBox="0 0 24 24">
    <defs>
        <path id="a" d="M0 0h24v24H0z"/>
    </defs>
    <g fill="none" fill-rule="evenodd">
        <mask id="b" fill="#fff">
            <use xlink:href="#a"/>
        </mask>
        <g fill="#fff" mask="url(#b)">
            <path d="M21.486 1.54A1 1 0 1 1 22.9 2.954l-4 3.995a20.954 20.954 0 0 1 4.3 3.6c.741.823.744 2.072.007 2.898-2.562 2.816-6.795 5.8-11.051 5.8h-.3a11.26 11.26 0 0 1-4.31-.939L3.4 22.454a1 1 0 0 1-1.631-1.088c.008-.008.018-.01.026-.017l19.5-19.5a.737.737 0 0 0 .173-.291zM12 4.75c1.1-.006 2.194.162 3.241.498a.254.254 0 0 1 .1.421L13.4 7.611a.244.244 0 0 1-.24.062A4.276 4.276 0 0 0 12 7.5 4.5 4.5 0 0 0 7.5 12c.006.393.065.783.176 1.16a.244.244 0 0 1-.061.24L4.57 16.45a.256.256 0 0 1-.326.029 21.209 21.209 0 0 1-3.438-3.03 2.15 2.15 0 0 1 .007-2.9C3.4 7.7 7.7 4.692 12 4.75zm3.926 5.32a.252.252 0 0 0-.221.072l-5.56 5.559a.253.253 0 0 0 .068.407 4.3 4.3 0 0 0 3.1.19 4.581 4.581 0 0 0 3-3.028 4.3 4.3 0 0 0-.201-3.061.252.252 0 0 0-.186-.14z"/>
        </g>
    </g>
</svg>
